<?xml version="1.0" encoding="UTF-8"?><svg id="Ebene_1" xmlns="http://www.w3.org/2000/svg" viewBox="0 0 3139.7 1379.03"><defs><style>.cls-1{fill:#e8404b;}.cls-1,.cls-2{stroke-width:0px;}.cls-2{fill:#fff;}</style></defs><rect class="cls-2" x="93.21" y="59.46" width="370.93" height="1260"/><rect class="cls-2" x="524.64" y="59.46" width="370.93" height="600.11"/><rect class="cls-2" x="524.64" y="719.35" width="370.93" height="600.11"/><rect class="cls-2" x="955.34" y="489.2" width="370.93" height="830.26"/><rect class="cls-1" x="955.34" y="59.46" width="370.93" height="370.93"/><path class="cls-2" d="M1666.7,166.02c18.91,13.02,33.33,30.67,43.27,52.94,9.94,22.27,14.92,47.13,14.92,74.57s-4.98,52.31-14.92,74.57c-9.95,22.27-24.37,39.91-43.27,52.94-18.91,13.02-41.53,19.54-67.85,19.54h-100.41c-7.29,0-13.38-2.45-18.28-7.35-4.9-4.9-7.35-10.99-7.35-18.28v-242.84c0-7.28,2.45-13.37,7.35-18.28s10.99-7.35,18.28-7.35h100.41c26.32,0,48.95,6.51,67.85,19.54ZM1651.37,364.32c12.6-18.62,18.91-42.22,18.91-70.79s-6.37-52.16-19.12-70.79c-12.75-18.62-31.58-27.94-56.51-27.94h-69.32v197.46h69.32c25.21,0,44.12-9.31,56.72-27.94Z"/><path class="cls-2" d="M1772.78,183.88c-3.93-3.08-5.88-8.54-5.88-16.39v-7.98c0-7.84,2.1-13.3,6.3-16.39,4.2-3.08,10.92-4.62,20.17-4.62,9.8,0,16.66,1.54,20.59,4.62,3.92,3.09,5.88,8.55,5.88,16.39v7.98c0,8.13-2.04,13.65-6.09,16.6-4.06,2.94-11,4.41-20.8,4.41s-16.25-1.54-20.17-4.62ZM1811.44,433.23c-4.77,4.9-10.79,7.35-18.07,7.35s-13.31-2.45-18.07-7.35c-4.77-4.9-7.14-10.99-7.14-18.28v-173.52c0-7.28,2.38-13.37,7.14-18.28,4.76-4.9,10.78-7.35,18.07-7.35s13.3,2.46,18.07,7.35c4.76,4.9,7.14,11,7.14,18.28v173.52c0,7.29-2.38,13.38-7.14,18.28Z"/><path class="cls-2" d="M2076.54,218.75c4.76,4.77,7.14,10.92,7.14,18.49v186.96c0,34.17-10.58,59.45-31.72,75.83-21.15,16.39-47.97,24.58-80.46,24.58-8.4,0-19.96-1.4-34.66-4.2-14.71-2.8-25.14-5.61-31.3-8.4-13.73-5.88-20.59-14.01-20.59-24.37,0-1.96.42-4.2,1.26-6.72,1.68-6.16,4.55-10.86,8.61-14.07,4.06-3.22,8.47-4.83,13.23-4.83,2.8,0,5.46.42,7.98,1.26,1.12.28,8.05,2.87,20.8,7.77,12.74,4.9,24.3,7.35,34.66,7.35,20.72,0,36.2-4.14,46.43-12.39,10.22-8.27,15.33-19.96,15.33-35.08v-20.17c-6.16,8.69-15.48,16.53-27.94,23.53-12.47,7-25.84,10.5-40.12,10.5-19.61,0-37.46-4.97-53.57-14.91-16.11-9.94-28.78-23.74-38.02-41.38-9.24-17.65-13.86-37.67-13.86-60.08s4.55-42.5,13.65-60.29c9.1-17.78,21.56-31.65,37.39-41.59,15.82-9.94,33.4-14.92,52.73-14.92,14.29,0,27.58,2.94,39.91,8.82,12.32,5.88,22.27,13.02,29.83,21.43v-4.62c0-7.28,2.38-13.37,7.14-18.28,4.76-4.9,10.78-7.35,18.07-7.35s13.3,2.38,18.07,7.14ZM2017.51,378.61c11.9-13.3,17.86-30.04,17.86-50.21s-5.95-36.97-17.86-50.42c-11.91-13.44-27.24-20.17-46-20.17s-34.03,6.72-45.79,20.17c-11.76,13.44-17.65,30.25-17.65,50.42s5.88,36.91,17.65,50.21c11.76,13.31,27.03,19.96,45.79,19.96s34.1-6.65,46-19.96Z"/><path class="cls-2" d="M2142.08,183.88c-3.93-3.08-5.88-8.54-5.88-16.39v-7.98c0-7.84,2.1-13.3,6.3-16.39,4.2-3.08,10.92-4.62,20.17-4.62,9.8,0,16.66,1.54,20.59,4.62,3.92,3.09,5.88,8.55,5.88,16.39v7.98c0,8.13-2.04,13.65-6.09,16.6-4.06,2.94-11,4.41-20.8,4.41s-16.25-1.54-20.17-4.62ZM2180.73,433.23c-4.77,4.9-10.79,7.35-18.07,7.35s-13.31-2.45-18.07-7.35c-4.77-4.9-7.14-10.99-7.14-18.28v-173.52c0-7.28,2.38-13.37,7.14-18.28,4.76-4.9,10.78-7.35,18.07-7.35s13.3,2.46,18.07,7.35c4.76,4.9,7.14,11,7.14,18.28v173.52c0,7.29-2.38,13.38-7.14,18.28Z"/><path class="cls-2" d="M2360.76,398.78c3.22,3.78,4.83,8.76,4.83,14.92,0,7.56-4.14,13.94-12.39,19.12-8.26,5.19-17.58,7.77-27.94,7.77-17.37,0-32-3.71-43.9-11.13-11.91-7.42-17.86-23.17-17.86-47.27v-115.96h-19.33c-6.72,0-12.33-2.24-16.81-6.72-4.48-4.48-6.72-10.08-6.72-16.81s2.24-11.83,6.72-16.18c4.48-4.34,10.08-6.51,16.81-6.51h19.33v-26.89c0-7.28,2.45-13.37,7.35-18.28,4.9-4.9,10.99-7.35,18.28-7.35s12.88,2.46,17.65,7.35c4.76,4.9,7.14,11,7.14,18.28v26.89h29.83c6.72,0,12.32,2.25,16.81,6.72,4.48,4.48,6.72,10.08,6.72,16.81s-2.25,11.84-6.72,16.18c-4.48,4.35-10.08,6.51-16.81,6.51h-29.83v113.86c0,5.88,1.54,10.16,4.62,12.81,3.08,2.67,7.28,3.99,12.6,3.99,2.24,0,5.32-.56,9.24-1.68,3.36-1.4,6.58-2.1,9.66-2.1,3.92,0,7.49,1.89,10.71,5.67Z"/><path class="cls-2" d="M2615.57,218.75c4.76,4.77,7.14,10.92,7.14,18.49v177.72c0,7.29-2.38,13.38-7.14,18.28-4.77,4.9-10.79,7.35-18.07,7.35s-13.23-2.38-17.86-7.14c-4.62-4.76-7.08-10.78-7.35-18.07-7,8.13-16.46,15.06-28.36,20.8-11.91,5.74-24.44,8.61-37.6,8.61-19.33,0-36.83-4.97-52.52-14.91-15.69-9.94-28.08-23.74-37.18-41.38-9.11-17.65-13.65-37.67-13.65-60.08s4.48-42.5,13.44-60.29c8.96-17.78,21.22-31.65,36.76-41.59,15.54-9.94,32.7-14.92,51.47-14.92,13.44,0,26.05,2.46,37.81,7.35,11.76,4.9,21.7,11.13,29.83,18.7v-.42c0-7.28,2.38-13.37,7.14-18.28,4.76-4.9,10.78-7.35,18.07-7.35s13.3,2.38,18.07,7.14ZM2557.17,378.61c11.48-13.3,17.23-30.04,17.23-50.21s-5.74-36.97-17.23-50.42c-11.49-13.44-26.33-20.17-44.54-20.17s-32.63,6.72-44.11,20.17c-11.49,13.44-17.23,30.25-17.23,50.42s5.67,36.91,17.02,50.21c11.34,13.31,26.11,19.96,44.32,19.96s33.05-6.65,44.54-19.96Z"/><path class="cls-2" d="M2726.69,433.23c-4.9,4.9-11,7.35-18.28,7.35s-12.89-2.45-17.65-7.35c-4.77-4.9-7.14-10.99-7.14-18.28V155.31c0-7.28,2.45-13.37,7.35-18.28,4.9-4.9,10.99-7.35,18.28-7.35s12.88,2.46,17.65,7.35c4.76,4.9,7.14,11,7.14,18.28v259.64c0,7.29-2.46,13.38-7.35,18.28Z"/><path class="cls-2" d="M1685.61,768.21c9.38,12.05,14.07,27.59,14.07,46.64,0,33.33-9.52,56.58-28.57,69.74-19.05,13.17-41.74,19.75-68.06,19.75h-104.61c-7.29,0-13.38-2.45-18.28-7.35-4.9-4.9-7.35-10.99-7.35-18.28v-242.84c0-7.28,2.45-13.37,7.35-18.28s10.99-7.35,18.28-7.35h105.87c53.21,0,79.83,24.93,79.83,74.78,0,12.6-3.01,23.74-9.03,33.4-6.03,9.66-14.64,17.3-25.84,22.9,14.84,5.88,26.95,14.85,36.34,26.89ZM1620.91,668.42c-5.74-5.74-13.8-8.61-24.16-8.61h-69.32v65.54h70.58c8.4,0,15.75-2.8,22.06-8.4,6.3-5.6,9.45-13.16,9.45-22.69,0-11.48-2.88-20.09-8.61-25.84ZM1633.93,845.51c7.42-7,11.13-17.23,11.13-30.67,0-16.52-4.35-27.31-13.02-32.35-8.68-5.04-19.33-7.56-31.93-7.56h-72.68v81.09h75.62c13.16,0,23.46-3.5,30.88-10.5Z"/><path class="cls-2" d="M1930.76,686.91c4.76,4.9,7.14,11,7.14,18.28v106.71c0,30.25-8.34,53.92-25,71-16.67,17.09-40.41,25.63-71.21,25.63s-54.48-8.54-71-25.63c-16.53-17.08-24.79-40.75-24.79-71v-106.71c0-7.28,2.38-13.37,7.14-18.28,4.76-4.9,10.78-7.35,18.07-7.35s13.3,2.46,18.07,7.35c4.76,4.9,7.14,11,7.14,18.28v106.71c0,17.09,3.78,29.76,11.34,38.02,7.56,8.26,18.91,12.39,34.03,12.39s26.89-4.13,34.45-12.39c7.56-8.26,11.34-20.93,11.34-38.02v-106.71c0-7.28,2.38-13.37,7.14-18.28,4.76-4.9,10.78-7.35,18.07-7.35s13.3,2.46,18.07,7.35Z"/><path class="cls-2" d="M1996.29,647.63c-3.93-3.08-5.88-8.54-5.88-16.39v-7.98c0-7.84,2.1-13.3,6.3-16.39,4.2-3.08,10.92-4.62,20.17-4.62,9.8,0,16.66,1.54,20.59,4.62,3.92,3.09,5.88,8.55,5.88,16.39v7.98c0,8.13-2.04,13.65-6.09,16.6-4.06,2.94-11,4.41-20.8,4.41s-16.25-1.54-20.17-4.62ZM2034.95,896.98c-4.77,4.9-10.79,7.35-18.07,7.35s-13.31-2.45-18.07-7.35c-4.77-4.9-7.14-10.99-7.14-18.28v-173.52c0-7.28,2.38-13.37,7.14-18.28,4.76-4.9,10.78-7.35,18.07-7.35s13.3,2.46,18.07,7.35c4.76,4.9,7.14,11,7.14,18.28v173.52c0,7.29-2.38,13.38-7.14,18.28Z"/><path class="cls-2" d="M2143.13,896.98c-4.9,4.9-11,7.35-18.28,7.35s-12.89-2.45-17.65-7.35c-4.77-4.9-7.14-10.99-7.14-18.28v-259.64c0-7.28,2.45-13.37,7.35-18.28,4.9-4.9,10.99-7.35,18.28-7.35s12.88,2.46,17.65,7.35c4.76,4.9,7.14,11,7.14,18.28v259.64c0,7.29-2.46,13.38-7.35,18.28Z"/><path class="cls-2" d="M2407.18,600.57c4.76,4.77,7.14,10.92,7.14,18.49v259.64c0,7.29-2.38,13.38-7.14,18.28-4.77,4.9-10.79,7.35-18.07,7.35s-13.23-2.38-17.86-7.14c-4.62-4.76-7.08-10.78-7.35-18.07-7,8.13-16.46,15.06-28.36,20.8-11.91,5.74-24.44,8.61-37.6,8.61-19.33,0-36.83-4.97-52.52-14.91-15.69-9.94-28.08-23.74-37.18-41.38-9.11-17.65-13.65-37.67-13.65-60.08s4.48-42.5,13.44-60.29c8.96-17.78,21.22-31.65,36.76-41.59,15.54-9.94,32.7-14.92,51.47-14.92,13.44,0,26.05,2.46,37.81,7.35,11.76,4.9,21.7,11.13,29.83,18.7v-82.35c0-7.28,2.38-13.37,7.14-18.28,4.76-4.9,10.78-7.35,18.07-7.35s13.3,2.38,18.07,7.14ZM2348.78,842.36c11.48-13.3,17.23-30.04,17.23-50.21s-5.74-36.97-17.23-50.42c-11.49-13.45-26.33-20.17-44.54-20.17s-32.63,6.72-44.11,20.17c-11.49,13.44-17.23,30.25-17.23,50.42s5.67,36.91,17.02,50.21c11.34,13.31,26.11,19.96,44.32,19.96s33.05-6.65,44.54-19.96Z"/><path class="cls-2" d="M2472.72,647.63c-3.93-3.08-5.88-8.54-5.88-16.39v-7.98c0-7.84,2.1-13.3,6.3-16.39,4.2-3.08,10.92-4.62,20.17-4.62,9.8,0,16.66,1.54,20.59,4.62,3.92,3.09,5.88,8.55,5.88,16.39v7.98c0,8.13-2.04,13.65-6.09,16.6-4.06,2.94-11,4.41-20.8,4.41s-16.25-1.54-20.17-4.62ZM2511.37,896.98c-4.77,4.9-10.79,7.35-18.07,7.35s-13.31-2.45-18.07-7.35c-4.77-4.9-7.14-10.99-7.14-18.28v-173.52c0-7.28,2.38-13.37,7.14-18.28,4.76-4.9,10.78-7.35,18.07-7.35s13.3,2.46,18.07,7.35c4.76,4.9,7.14,11,7.14,18.28v173.52c0,7.29-2.38,13.38-7.14,18.28Z"/><path class="cls-2" d="M2751.69,700.77c10.92,16.95,16.39,40.41,16.39,70.37v107.56c0,7.29-2.38,13.38-7.14,18.28-4.77,4.9-10.79,7.35-18.07,7.35s-13.31-2.45-18.07-7.35c-4.77-4.9-7.14-10.99-7.14-18.28v-107.56c0-15.4-3.22-27.52-9.66-36.34-6.45-8.82-17.51-13.23-33.19-13.23s-28.99,4.69-38.23,14.08c-9.24,9.39-13.86,21.22-13.86,35.5v107.56c0,7.29-2.38,13.38-7.14,18.28-4.77,4.9-10.79,7.35-18.07,7.35s-13.31-2.45-18.07-7.35c-4.77-4.9-7.14-10.99-7.14-18.28v-173.52c0-7.28,2.38-13.37,7.14-18.28,4.76-4.9,10.78-7.35,18.07-7.35s13.3,2.46,18.07,7.35c4.76,4.9,7.14,11,7.14,18.28v7.14c7.56-10.08,17.44-18.76,29.62-26.05,12.18-7.28,25.56-10.92,40.12-10.92,28.57,0,48.32,8.48,59.24,25.42Z"/><path class="cls-2" d="M3028.97,682.5c4.76,4.77,7.14,10.92,7.14,18.49v186.96c0,34.17-10.58,59.45-31.72,75.83-21.15,16.39-47.97,24.58-80.46,24.58-8.4,0-19.96-1.4-34.66-4.2-14.71-2.8-25.14-5.61-31.3-8.4-13.73-5.88-20.59-14.01-20.59-24.37,0-1.96.42-4.2,1.26-6.72,1.68-6.16,4.55-10.86,8.61-14.07,4.06-3.22,8.47-4.83,13.23-4.83,2.8,0,5.46.42,7.98,1.26,1.12.28,8.05,2.87,20.8,7.77,12.74,4.9,24.3,7.35,34.66,7.35,20.72,0,36.2-4.13,46.43-12.39,10.22-8.26,15.33-19.96,15.33-35.08v-20.17c-6.16,8.68-15.48,16.53-27.94,23.53-12.47,7-25.84,10.5-40.12,10.5-19.61,0-37.46-4.97-53.57-14.91-16.11-9.94-28.78-23.74-38.02-41.38s-13.86-37.67-13.86-60.08,4.55-42.5,13.65-60.29c9.1-17.78,21.56-31.65,37.39-41.59,15.82-9.94,33.4-14.92,52.73-14.92,14.29,0,27.58,2.94,39.91,8.82,12.32,5.88,22.27,13.02,29.83,21.43v-4.62c0-7.28,2.38-13.37,7.14-18.28,4.76-4.9,10.78-7.35,18.07-7.35s13.3,2.38,18.07,7.14ZM2969.94,842.36c11.9-13.3,17.86-30.04,17.86-50.21s-5.95-36.97-17.86-50.42c-11.91-13.45-27.24-20.17-46-20.17s-34.03,6.72-45.79,20.17c-11.76,13.44-17.65,30.25-17.65,50.42s5.88,36.91,17.65,50.21c11.76,13.31,27.03,19.96,45.79,19.96s34.1-6.65,46-19.96Z"/><path class="cls-2" d="M1483.71,1243.68c-1.23,1.23-2.74,1.85-4.53,1.85-1.92,0-3.46-.58-4.63-1.75-1.17-1.16-1.75-2.71-1.75-4.63v-131.24c0-1.92.62-3.46,1.85-4.63,1.23-1.16,2.81-1.75,4.73-1.75,1.78,0,3.29.62,4.53,1.85,1.23,1.23,1.85,2.75,1.85,4.53v131.24c-.14,1.78-.82,3.29-2.06,4.53Z"/><path class="cls-2" d="M1643.24,1103.18c1.03,1.1,1.54,2.47,1.54,4.11v131.65c0,2.06-.62,3.67-1.85,4.83-1.23,1.17-2.75,1.75-4.53,1.75-.96,0-1.89-.21-2.78-.62-.89-.41-1.61-.89-2.16-1.44l-88.25-118.9v115.4c0,1.51-.58,2.81-1.75,3.91-1.17,1.1-2.5,1.65-4.01,1.65-1.65,0-3.02-.55-4.11-1.65-1.1-1.1-1.65-2.4-1.65-3.91v-132.27c0-1.92.58-3.43,1.75-4.53,1.16-1.1,2.57-1.65,4.22-1.65,2.19,0,3.84.75,4.94,2.26l88.66,119.52v-116.02c0-1.65.54-3.02,1.64-4.11,1.1-1.1,2.47-1.65,4.12-1.65,1.78,0,3.19.55,4.22,1.65Z"/><path class="cls-2" d="M1784.76,1111.3c8.98,6.52,15.7,15.22,20.16,26.12,4.46,10.9,6.69,22.94,6.69,36.1s-2.23,25.78-6.69,36.62c-4.46,10.83-11.18,19.44-20.16,25.82-8.98,6.38-20.06,9.57-33.22,9.57h-52.46c-1.78,0-3.26-.58-4.42-1.75-1.17-1.16-1.75-2.64-1.75-4.42v-131.65c0-1.78.58-3.26,1.75-4.42,1.16-1.16,2.64-1.75,4.42-1.75h52.46c13.17,0,24.24,3.26,33.22,9.77ZM1786.3,1216.83c8.09-11.04,12.14-25.47,12.14-43.3,0-11.11-1.72-21.15-5.14-30.14-3.43-8.98-8.81-16.18-16.15-21.6-7.34-5.42-16.56-8.12-27.67-8.12h-43.61v119.72h43.61c16.46,0,28.73-5.52,36.82-16.56Z"/><path class="cls-2" d="M1956.53,1103.28c1.16,1.17,1.75,2.64,1.75,4.42v85.16c0,10.01-2.4,19.2-7.2,27.57-4.8,8.37-11.31,14.95-19.54,19.75-8.23,4.8-17.28,7.2-27.15,7.2s-19.13-2.4-27.36-7.2c-8.23-4.8-14.74-11.38-19.54-19.75-4.8-8.36-7.2-17.55-7.2-27.57v-85.16c0-1.78.58-3.26,1.75-4.42,1.16-1.16,2.78-1.75,4.83-1.75,1.65,0,3.09.58,4.32,1.75,1.23,1.17,1.85,2.64,1.85,4.42v85.16c0,7.68,1.85,14.74,5.55,21.19,3.7,6.45,8.74,11.55,15.12,15.32,6.38,3.77,13.27,5.66,20.67,5.66s14.5-1.88,20.88-5.66c6.38-3.77,11.45-8.88,15.22-15.32,3.77-6.45,5.66-13.51,5.66-21.19v-85.16c0-1.78.55-3.26,1.64-4.42,1.1-1.16,2.54-1.75,4.32-1.75s3.26.58,4.42,1.75Z"/><path class="cls-2" d="M2017,1242.65c-7.61-3.29-14.98-8.43-22.11-15.43-1.65-1.37-2.47-3.02-2.47-4.94,0-1.65.65-3.15,1.95-4.53,1.3-1.37,2.78-2.06,4.42-2.06s3.15.69,4.53,2.06c10.7,11.8,24.07,17.69,40.11,17.69,9.87,0,18.07-2.33,24.58-6.99,6.51-4.66,9.77-10.76,9.77-18.31,0-5.89-1.61-10.8-4.83-14.71-3.22-3.91-7.44-7.1-12.65-9.57-5.21-2.47-11.86-5-19.95-7.61-8.78-2.6-16.15-5.48-22.11-8.64-5.97-3.15-10.8-7.37-14.5-12.65-3.7-5.28-5.55-11.96-5.55-20.06,0-7.27,1.95-13.71,5.86-19.34,3.91-5.62,9.39-10.04,16.46-13.27,7.06-3.22,15.19-4.83,24.38-4.83,8.36,0,16.21,1.41,23.55,4.22,7.34,2.81,13.2,6.82,17.59,12.03,2.06,2.33,3.09,4.32,3.09,5.97,0,1.51-.69,2.92-2.06,4.22-1.37,1.3-2.88,1.95-4.53,1.95-1.37,0-2.54-.48-3.5-1.44-3.7-4.39-8.64-7.95-14.81-10.7-6.17-2.74-12.62-4.11-19.34-4.11-10.01,0-18.17,2.23-24.48,6.69-6.31,4.46-9.46,10.53-9.46,18.21s3.01,14.06,9.05,18.31c6.03,4.25,14.67,8.16,25.92,11.73,9.74,2.88,17.69,5.83,23.86,8.85,6.17,3.02,11.21,7.3,15.12,12.86,3.91,5.55,5.86,12.86,5.86,21.91,0,6.99-2.03,13.34-6.07,19.03-4.05,5.69-9.67,10.18-16.87,13.47s-15.39,4.94-24.58,4.94c-9.87,0-18.62-1.65-26.23-4.94Z"/><path class="cls-2" d="M2225.59,1103.18c1.16,1.1,1.75,2.54,1.75,4.32s-.59,3.19-1.75,4.22c-1.17,1.03-2.64,1.54-4.42,1.54h-42.58v126.1c0,1.78-.62,3.26-1.85,4.42-1.23,1.17-2.74,1.75-4.53,1.75-1.92,0-3.46-.58-4.63-1.75-1.17-1.16-1.75-2.64-1.75-4.42v-126.1h-42.58c-1.78,0-3.26-.55-4.42-1.65-1.17-1.1-1.75-2.54-1.75-4.32,0-1.65.58-3.02,1.75-4.11,1.16-1.1,2.64-1.65,4.42-1.65h97.92c1.78,0,3.26.55,4.42,1.65Z"/><path class="cls-2" d="M2371.33,1239.56c0,.69-.28,1.58-.82,2.67-.55.96-1.3,1.72-2.26,2.26-.96.55-1.99.82-3.09.82-1.37,0-2.54-.27-3.5-.82-3.84-2.19-6.93-5.76-9.26-10.7-2.33-4.94-3.5-12.82-3.5-23.66,0-9.6-2.68-16.35-8.02-20.26s-11.72-5.86-19.13-5.86h-45.67v55.33c0,1.78-.55,3.26-1.65,4.42-1.1,1.17-2.54,1.75-4.32,1.75-1.92,0-3.57-.58-4.94-1.75-1.37-1.16-2.06-2.64-2.06-4.42v-131.65c0-1.78.58-3.26,1.75-4.42,1.16-1.16,2.64-1.75,4.42-1.75h55.54c7.82,0,14.81,1.68,20.98,5.04,6.17,3.36,11.01,7.99,14.5,13.89,3.5,5.9,5.25,12.55,5.25,19.95,0,8.78-2.3,16.49-6.89,23.14-4.6,6.65-10.59,11.21-18,13.68,6.03,2.33,10.97,6.27,14.81,11.83,3.84,5.55,5.83,12.31,5.96,20.26.13,8.5.72,14.47,1.75,17.9,1.03,3.43,2.71,5.83,5.04,7.2,2.06,1.37,3.09,3.09,3.09,5.14ZM2325.46,1172.71c4.8-.41,9.26-1.99,13.37-4.73,4.11-2.74,7.4-6.44,9.87-11.11,2.47-4.66,3.7-10.01,3.7-16.04,0-7.82-2.64-14.3-7.92-19.44-5.28-5.14-12.17-7.71-20.67-7.71h-47.72v59.04h49.37Z"/><path class="cls-2" d="M2421.32,1243.68c-1.23,1.23-2.75,1.85-4.53,1.85-1.92,0-3.46-.58-4.63-1.75-1.17-1.16-1.75-2.71-1.75-4.63v-131.24c0-1.92.62-3.46,1.85-4.63,1.23-1.16,2.81-1.75,4.73-1.75,1.78,0,3.29.62,4.53,1.85,1.23,1.23,1.85,2.75,1.85,4.53v131.24c-.14,1.78-.82,3.29-2.06,4.53Z"/><path class="cls-2" d="M2557.39,1235.24c1.16,1.23,1.75,2.67,1.75,4.32,0,1.78-.58,3.22-1.75,4.32-1.17,1.1-2.64,1.65-4.42,1.65h-75.49c-1.79,0-3.26-.58-4.42-1.75-1.17-1.16-1.75-2.64-1.75-4.42v-131.65c0-1.78.58-3.26,1.75-4.42,1.16-1.16,2.64-1.75,4.42-1.75h75.49c1.78,0,3.26.58,4.42,1.75,1.16,1.17,1.75,2.64,1.75,4.42s-.58,3.22-1.75,4.32c-1.17,1.1-2.64,1.65-4.42,1.65h-68.71v51.63h59.45c1.78,0,3.26.58,4.42,1.75,1.16,1.17,1.75,2.64,1.75,4.42s-.59,3.22-1.75,4.32c-1.17,1.1-2.64,1.65-4.42,1.65h-59.45v55.95h68.71c1.78,0,3.26.62,4.42,1.85Z"/><path class="cls-2" d="M2610.26,1242.65c-7.61-3.29-14.98-8.43-22.11-15.43-1.65-1.37-2.47-3.02-2.47-4.94,0-1.65.65-3.15,1.95-4.53,1.3-1.37,2.78-2.06,4.42-2.06s3.15.69,4.53,2.06c10.7,11.8,24.07,17.69,40.11,17.69,9.87,0,18.07-2.33,24.58-6.99,6.51-4.66,9.77-10.76,9.77-18.31,0-5.89-1.61-10.8-4.83-14.71-3.22-3.91-7.44-7.1-12.65-9.57-5.21-2.47-11.86-5-19.95-7.61-8.78-2.6-16.15-5.48-22.11-8.64-5.97-3.15-10.8-7.37-14.5-12.65-3.7-5.28-5.55-11.96-5.55-20.06,0-7.27,1.95-13.71,5.86-19.34,3.91-5.62,9.39-10.04,16.46-13.27,7.06-3.22,15.19-4.83,24.38-4.83,8.36,0,16.21,1.41,23.55,4.22,7.34,2.81,13.2,6.82,17.59,12.03,2.06,2.33,3.09,4.32,3.09,5.97,0,1.51-.69,2.92-2.06,4.22-1.37,1.3-2.88,1.95-4.53,1.95-1.37,0-2.54-.48-3.5-1.44-3.7-4.39-8.64-7.95-14.81-10.7-6.17-2.74-12.62-4.11-19.34-4.11-10.01,0-18.17,2.23-24.48,6.69-6.31,4.46-9.46,10.53-9.46,18.21s3.01,14.06,9.05,18.31c6.03,4.25,14.67,8.16,25.92,11.73,9.74,2.88,17.69,5.83,23.86,8.85,6.17,3.02,11.21,7.3,15.12,12.86,3.91,5.55,5.86,12.86,5.86,21.91,0,6.99-2.03,13.34-6.07,19.03-4.05,5.69-9.67,10.18-16.87,13.47s-15.39,4.94-24.58,4.94c-9.87,0-18.62-1.65-26.23-4.94Z"/><path class="cls-2" d="M2896.08,1239.77c0,1.78-.62,3.22-1.85,4.32-1.23,1.1-2.68,1.65-4.32,1.65-1.37,0-2.57-.38-3.6-1.13-1.03-.75-1.82-1.75-2.37-2.98l-15.43-37.64h-66.85l-15.22,37.64c-1.1,2.75-2.95,4.11-5.55,4.11-1.92,0-3.36-.48-4.32-1.44-.96-.96-1.51-2.26-1.65-3.91v-.62c0-.82.07-1.44.21-1.85l54.31-132.89c1.1-2.74,3.15-4.11,6.17-4.11,1.37,0,2.57.38,3.6,1.13,1.03.76,1.82,1.75,2.37,2.98l54.1,132.27c.27,1.1.41,1.92.41,2.47ZM2806.39,1191.84h57.19l-28.8-70.35-28.39,70.35Z"/><path class="cls-2" d="M3039.36,1174.66c1.16,1.17,1.75,2.64,1.75,4.42v49.58c0,2.33-1.03,4.19-3.09,5.55-6.17,4.25-13.03,7.54-20.57,9.87-7.54,2.33-15.22,3.5-23.04,3.5-13.99,0-26.61-3.22-37.85-9.67-11.25-6.44-20.09-15.29-26.54-26.54-6.45-11.24-9.67-23.86-9.67-37.85s3.22-26.6,9.67-37.85c6.45-11.24,15.29-20.09,26.54-26.54,11.24-6.44,23.86-9.67,37.85-9.67,7.27,0,14.3.89,21.08,2.67,6.79,1.78,12.86,4.32,18.21,7.61,1.92,1.23,2.88,2.95,2.88,5.14,0,1.78-.59,3.29-1.75,4.53-1.17,1.23-2.5,1.85-4.01,1.85-1.37,0-2.61-.34-3.7-1.03-10.29-5.62-21.19-8.43-32.71-8.43s-22.11,2.67-31.37,8.02c-9.26,5.35-16.49,12.72-21.7,22.11-5.21,9.4-7.82,19.92-7.82,31.58s2.6,22.18,7.82,31.58c5.21,9.39,12.45,16.76,21.7,22.11,9.26,5.35,19.71,8.02,31.37,8.02,5.89,0,11.83-.82,17.79-2.47,5.97-1.65,11.28-3.91,15.94-6.79v-40.73h-32.5c-1.78,0-3.29-.58-4.53-1.75-1.23-1.16-1.85-2.64-1.85-4.42s.62-3.26,1.85-4.42c1.23-1.16,2.74-1.75,4.53-1.75h39.29c1.78,0,3.26.58,4.42,1.75Z"/></svg>