<?xml version="1.0" encoding="UTF-8" standalone="no"?>
<svg
   id="Ebene_1"
   viewBox="0 0 410 120"
   version="1.1"
   sodipodi:docname="lara.svg"
   width="410"
   height="120"
   inkscape:version="1.4.2 (f4327f4, 2025-05-13)"
   xmlns:inkscape="http://www.inkscape.org/namespaces/inkscape"
   xmlns:sodipodi="http://sodipodi.sourceforge.net/DTD/sodipodi-0.dtd"
   xmlns:xlink="http://www.w3.org/1999/xlink"
   xmlns="http://www.w3.org/2000/svg"
   xmlns:svg="http://www.w3.org/2000/svg">
  <sodipodi:namedview
     id="namedview12"
     pagecolor="#ffffff"
     bordercolor="#000000"
     borderopacity="0.25"
     inkscape:showpageshadow="2"
     inkscape:pageopacity="0.0"
     inkscape:pagecheckerboard="0"
     inkscape:deskcolor="#d1d1d1"
     inkscape:zoom="2.0244444"
     inkscape:cx="191.16356"
     inkscape:cy="40.751921"
     inkscape:window-width="1920"
     inkscape:window-height="1129"
     inkscape:window-x="1912"
     inkscape:window-y="-8"
     inkscape:window-maximized="1"
     inkscape:current-layer="Ebene_1" />
  <defs
     id="defs2">
    <linearGradient
       id="Unbenannter_Verlauf_2"
       x1="48.700001"
       y1="87.5"
       x2="401.92001"
       y2="87.5"
       gradientUnits="userSpaceOnUse">
      <stop
         offset="0"
         stop-color="#e84e1b"
         id="stop1" />
      <stop
         offset="1"
         stop-color="#904d33"
         id="stop2" />
    </linearGradient>
    <linearGradient
       id="Unbenannter_Verlauf_2-2"
       y1="80.040001"
       x2="401.92001"
       y2="80.040001"
       xlink:href="#Unbenannter_Verlauf_2"
       gradientTransform="translate(-19.610438,-19.838112)" />
    <linearGradient
       id="Unbenannter_Verlauf_2-3"
       y1="88.209999"
       x2="401.92001"
       y2="88.209999"
       xlink:href="#Unbenannter_Verlauf_2"
       gradientTransform="translate(-19.610438,-19.838112)" />
    <linearGradient
       id="Unbenannter_Verlauf_2-4"
       y1="88.209999"
       x2="401.92001"
       y2="88.209999"
       xlink:href="#Unbenannter_Verlauf_2"
       gradientTransform="translate(-19.610438,-19.838112)" />
    <linearGradient
       id="Unbenannter_Verlauf_2-5"
       y1="87.610001"
       x2="401.92001"
       y2="87.610001"
       xlink:href="#Unbenannter_Verlauf_2"
       gradientTransform="translate(-19.610438,-19.838112)" />
    <linearGradient
       id="Unbenannter_Verlauf_2-6"
       y1="111.51"
       x2="401.92001"
       y2="111.51"
       xlink:href="#Unbenannter_Verlauf_2"
       gradientTransform="translate(-19.610438,-19.838112)" />
    <linearGradient
       id="Unbenannter_Verlauf_2-7"
       y1="127.89"
       y2="127.89"
       xlink:href="#Unbenannter_Verlauf_2"
       gradientTransform="translate(-19.610438,-19.838112)" />
    <linearGradient
       id="Unbenannter_Verlauf_2-8"
       y1="111.51"
       x2="401.92001"
       y2="111.51"
       xlink:href="#Unbenannter_Verlauf_2"
       gradientTransform="translate(-19.610438,-19.838112)" />
    <linearGradient
       id="Unbenannter_Verlauf_2-9"
       y1="63.709999"
       x2="401.92001"
       y2="63.709999"
       xlink:href="#Unbenannter_Verlauf_2"
       gradientTransform="translate(-19.610438,-19.838112)" />
    <linearGradient
       id="Unbenannter_Verlauf_2-10"
       y1="39.720001"
       x2="401.92001"
       y2="39.720001"
       xlink:href="#Unbenannter_Verlauf_2"
       gradientTransform="translate(-19.610438,-19.838112)" />
    <linearGradient
       id="Unbenannter_Verlauf_2-11"
       y1="63.709999"
       x2="401.92001"
       y2="63.709999"
       xlink:href="#Unbenannter_Verlauf_2"
       gradientTransform="translate(-19.610438,-19.838112)" />
    <linearGradient
       inkscape:collect="always"
       xlink:href="#Unbenannter_Verlauf_2"
       id="linearGradient12"
       gradientUnits="userSpaceOnUse"
       x1="48.700001"
       y1="87.5"
       x2="401.92001"
       y2="87.5"
       gradientTransform="translate(-19.610438,-19.838112)" />
  </defs>
  <path
     d="m 329.19956,39.741888 c 0,2.18 -0.75,4.01 -2.27,5.47 -1.52,1.47 -3.42,2.2 -5.69,2.2 h -8.41 c -3.47,0 -6.58,0.72 -9.32,2.16 v 48.13 c 0,2.470002 -0.8,4.530002 -2.42,6.190002 -1.62,1.66 -3.65,2.49 -6.1,2.49 -2.45,0 -4.51,-0.82 -6.12,-2.49 -1.61,-1.66 -2.42,-3.72 -2.42,-6.190002 v -60.09 c 0,-2.47 0.81,-4.53 2.42,-6.19 1.61,-1.65 3.65,-2.49 6.12,-2.49 2.47,0 4.49,0.84 6.1,2.49 0.89,0.93 1.54,1.97 1.93,3.15 2.63,-1.29 5.33,-2.13 8.12,-2.52 1.25,-0.18 2.52,-0.27 3.81,-0.27 h 6.28 c 2.15,0 3.95,0.68 5.42,2.04 0.09,0.07 0.18,0.14 0.27,0.23 1.16,1.16 1.88,2.56 2.15,4.19 0.09,0.48 0.13,0.98 0.13,1.5 z"
     fill="url(#Unbenannter_Verlauf_2)"
     id="path2"
     style="fill:url(#linearGradient12)" />
  <path
     d="m 170.47956,47.411888 v 38.51 c 0,1.99 0.52,3.43 1.56,4.33 1.04,0.9 2.46,1.35 4.26,1.35 0.76,0 1.8,-0.19 3.13,-0.57 1.14,-0.47 2.22,-0.71 3.27,-0.71 1.32,0 2.53,0.64 3.62,1.92 1.09,1.28 1.63,2.96 1.63,5.04 0,2.56 -1.4,4.710002 -4.19,6.470002 -2.8,1.75 -5.95,2.63 -9.45,2.63 -5.88,0 -10.82,-1.25 -14.85,-3.77 -4.03,-2.51 -6.04,-7.840002 -6.04,-15.990002 v -63.94 c 0,-2.46 0.83,-4.52 2.49,-6.18 1.66,-1.66 3.72,-2.49 6.18,-2.49 2.46,0 4.36,0.83 5.97,2.49 1.61,1.66 2.42,3.72 2.42,6.18 z"
     fill="url(#Unbenannter_Verlauf_2-2)"
     id="path3"
     style="fill:url(#Unbenannter_Verlauf_2-2)" />
  <path
     d="m 268.06956,31.351888 c 1.61,1.61 2.42,3.7 2.42,6.25 v 60.11 c 0,2.470002 -0.81,4.530002 -2.42,6.180002 -1.61,1.66 -3.65,2.49 -6.11,2.49 -2.46,0 -4.48,-0.8 -6.04,-2.42 -1.56,-1.61 -2.39,-3.65 -2.49,-6.110002 -2.37,2.750002 -5.57,5.090002 -9.59,7.030002 -4.03,1.94 -8.27,2.91 -12.72,2.91 -6.54,0 -12.46,-1.68 -17.76,-5.05 -5.31,-3.360002 -9.5,-8.030002 -12.58,-14.000002 -3.08,-5.97 -4.62,-12.74 -4.62,-20.32 0,-7.58 1.51,-14.37 4.55,-20.39 3.03,-6.02 7.18,-10.7 12.43,-14.07 5.26,-3.36 11.06,-5.04 17.41,-5.04 4.55,0 8.81,0.83 12.79,2.49 3.98,1.66 7.34,3.77 10.09,6.32 v -0.14 c 0,-2.46 0.8,-4.52 2.42,-6.18 1.61,-1.66 3.64,-2.49 6.11,-2.49 2.47,0 4.5,0.81 6.11,2.42 z m -19.75,54.07 c 3.88,-4.5 5.83,-10.16 5.83,-16.98 0,-6.82 -1.94,-12.5 -5.83,-17.05 -3.89,-4.55 -8.91,-6.82 -15.06,-6.82 -6.15,0 -11.04,2.27 -14.92,6.82 -3.89,4.55 -5.83,10.23 -5.83,17.05 0,6.82 1.92,12.48 5.76,16.98 3.84,4.5 8.83,6.75 14.99,6.75 6.16,0 11.18,-2.25 15.06,-6.75 z"
     fill="url(#Unbenannter_Verlauf_2-3)"
     id="path4"
     style="fill:url(#Unbenannter_Verlauf_2-3)" />
  <path
     d="m 406.37956,31.351888 c 1.61,1.61 2.42,3.7 2.42,6.25 v 60.11 c 0,2.470002 -0.81,4.530002 -2.42,6.180002 -1.61,1.66 -3.65,2.49 -6.11,2.49 -2.46,0 -4.48,-0.8 -6.04,-2.42 -1.56,-1.61 -2.39,-3.65 -2.49,-6.110002 -2.37,2.750002 -5.57,5.090002 -9.59,7.030002 -4.03,1.94 -8.27,2.91 -12.72,2.91 -6.54,0 -12.46,-1.68 -17.76,-5.05 -5.31,-3.360002 -9.5,-8.030002 -12.58,-14.000002 -3.08,-5.97 -4.62,-12.74 -4.62,-20.32 0,-7.58 1.51,-14.37 4.55,-20.39 3.03,-6.02 7.18,-10.7 12.43,-14.07 5.26,-3.36 11.06,-5.04 17.41,-5.04 4.55,0 8.81,0.83 12.79,2.49 3.98,1.66 7.34,3.77 10.09,6.32 v -0.14 c 0,-2.46 0.8,-4.52 2.42,-6.18 1.61,-1.66 3.64,-2.49 6.11,-2.49 2.47,0 4.5,0.81 6.11,2.42 z m -19.75,54.07 c 3.88,-4.5 5.83,-10.16 5.83,-16.98 0,-6.82 -1.94,-12.5 -5.83,-17.05 -3.89,-4.55 -8.91,-6.82 -15.06,-6.82 -6.15,0 -11.04,2.27 -14.92,6.82 -3.89,4.55 -5.83,10.23 -5.83,17.05 0,6.82 1.92,12.48 5.76,16.98 3.84,4.5 8.83,6.75 14.99,6.75 6.16,0 11.18,-2.25 15.06,-6.75 z"
     fill="url(#Unbenannter_Verlauf_2-4)"
     id="path5"
     style="fill:url(#Unbenannter_Verlauf_2-4)" />
  <path
     d="m 52.559562,49.981888 -9.9,17.16 c -0.23,0.39 -0.23,0.87 0,1.26 l 9.9,17.16 c 0.23,0.39 0.64,0.63 1.09,0.63 h 19.82 c 0.45,0 0.87,-0.24 1.09,-0.63 l 9.9,-17.16 c 0.23,-0.39 0.23,-0.87 0,-1.26 l -9.9,-17.16 c -0.23,-0.39 -0.64,-0.63 -1.09,-0.63 h -19.82 c -0.45,0 -0.87,0.24 -1.09,0.63 z"
     fill="url(#Unbenannter_Verlauf_2-5)"
     id="path6"
     style="fill:url(#Unbenannter_Verlauf_2-5)" />
  <path
     d="M 112.99956,73.301888 H 95.309562 c -0.45,0 -0.87,0.24 -1.09,0.63 l -10.27,17.79 0.64,1.11 c 0,0 -0.01,0 -0.02,0 l 9.56,16.560002 c 0.23,0.39 0.64,0.63 1.09,0.63 h 19.819998 c 0.45,0 0.87,-0.23 1.09,-0.63 l 8.84,-15.330002 c 0.38,-0.66 0.1,-1.52 -0.61,-1.8 -4,-1.62 -8.2,-2.73 -12.48,-3.3 -0.84,-0.11 -1.33,-0.96 -1,-1.74 1.63,-3.95 2.78,-8.14 3.38,-12.51 0.1,-0.75 -0.5,-1.43 -1.26,-1.43 z"
     fill="url(#Unbenannter_Verlauf_2-6)"
     id="path7"
     style="fill:url(#Unbenannter_Verlauf_2-6)" />
  <path
     d="m 74.559562,97.881888 c -0.23,-0.39 -0.64,-0.63 -1.09,-0.63 h -19.82 c -0.45,0 -0.87,0.24 -1.09,0.63 l -8.87,15.360002 c -0.38,0.66 -0.1,1.51 0.6,1.8 5.97,2.46 12.51,3.82 19.36,3.82 6.85,0 13.29,-1.33 19.22,-3.75 0.7,-0.29 0.98,-1.14 0.6,-1.8 l -8.9,-15.420002 z"
     fill="url(#Unbenannter_Verlauf_2-7)"
     id="path8"
     style="fill:url(#Unbenannter_Verlauf_2-7)" />
  <path
     d="m 31.969562,73.301888 h -17.69 c -0.76,0 -1.36,0.67 -1.26,1.43 0.59,4.36 1.74,8.54 3.37,12.47 0.32,0.78 -0.17,1.63 -1.01,1.74 -4.270001,0.55 -8.5100007,1.66 -12.6300007,3.34 -0.7,0.29 -0.98,1.15 -0.61,1.8 l 8.8399997,15.320002 c 0.23,0.39 0.64,0.63 1.090001,0.63 h 19.77 c 0.48,0 0.93,-0.25 1.17,-0.66 l 9.95,-17.010002 c 0.23,-0.39 0.23,-0.88 0,-1.27 l -9.91,-17.16 c -0.23,-0.39 -0.64,-0.63 -1.09,-0.63 z"
     fill="url(#Unbenannter_Verlauf_2-8)"
     id="path9"
     style="fill:url(#Unbenannter_Verlauf_2-8)" />
  <path
     d="m 14.279562,62.241888 h 17.69 c 0.45,0 0.87,-0.24 1.09,-0.63 l 9.91,-17.16 c 0.23,-0.39 0.23,-0.87 0,-1.26 l -9.88,-17 c -0.24,-0.42 -0.69,-0.67 -1.17,-0.67 h -19.77 c -0.450001,0 -0.870001,0.23 -1.090001,0.63 l -8.8399997,15.33 c -0.38,0.66 -0.1,1.52 0.61,1.8 4.03,1.63 8.2499997,2.74 12.5600007,3.31 0.84,0.11 1.33,0.96 1.01,1.74 -1.63,3.94 -2.78,8.14 -3.38,12.5 -0.1,0.75 0.5,1.43 1.26,1.43 z"
     fill="url(#Unbenannter_Verlauf_2-9)"
     id="path10"
     style="fill:url(#Unbenannter_Verlauf_2-9)" />
  <path
     d="m 52.559562,37.671888 c 0.23,0.39 0.64,0.63 1.09,0.63 h 19.82 c 0.45,0 0.87,-0.24 1.09,-0.63 l 9.88,-17.1 c 0.24,-0.42 0.24,-0.94 0,-1.35 l -9.88,-17.11 c -0.23,-0.39 -0.64,-0.63 -1.09,-0.63 h -19.82 c -0.45,0 -0.87,0.24 -1.09,0.63 l -9.88,17.11 c -0.24,0.42 -0.24,0.94 0,1.35 z"
     fill="url(#Unbenannter_Verlauf_2-10)"
     id="path11"
     style="fill:url(#Unbenannter_Verlauf_2-10)" />
  <path
     d="m 95.309562,62.241888 h 17.689998 c 0.76,0 1.36,-0.67 1.26,-1.43 -0.59,-4.36 -1.74,-8.54 -3.37,-12.48 -0.32,-0.78 0.17,-1.63 1.01,-1.74 4.24,-0.56 8.46,-1.66 12.56,-3.33 0.7,-0.29 0.98,-1.15 0.61,-1.8 l -8.84,-15.32 c -0.23,-0.39 -0.64,-0.63 -1.09,-0.63 H 95.369562 c -0.48,0 -0.93,0.25 -1.17,0.67 l -9.87,17.01 c -0.23,0.39 -0.23,0.87 0,1.26 l 9.9,17.16 c 0.23,0.39 0.64,0.63 1.09,0.63 z"
     fill="url(#Unbenannter_Verlauf_2-11)"
     id="path12"
     style="fill:url(#Unbenannter_Verlauf_2-11)" />
</svg>
