<?xml version="1.0" encoding="UTF-8"?><svg id="Ebene_1" xmlns="http://www.w3.org/2000/svg" xmlns:xlink="http://www.w3.org/1999/xlink" viewBox="0 0 450 160"><defs><linearGradient id="Unbenannter_Verlauf_2" x1="48.7" y1="87.5" x2="401.92" y2="87.5" gradientUnits="userSpaceOnUse"><stop offset="0" stop-color="#e84e1b"/><stop offset="1" stop-color="#904d33"/></linearGradient><linearGradient id="Unbenannter_Verlauf_2-2" y1="80.04" x2="401.92" y2="80.04" xlink:href="#Unbenannter_Verlauf_2"/><linearGradient id="Unbenannter_Verlauf_2-3" y1="88.21" x2="401.92" y2="88.21" xlink:href="#Unbenannter_Verlauf_2"/><linearGradient id="Unbenannter_Verlauf_2-4" y1="88.21" x2="401.92" y2="88.21" xlink:href="#Unbenannter_Verlauf_2"/><linearGradient id="Unbenannter_Verlauf_2-5" y1="87.61" x2="401.92" y2="87.61" xlink:href="#Unbenannter_Verlauf_2"/><linearGradient id="Unbenannter_Verlauf_2-6" y1="111.51" x2="401.92" y2="111.51" xlink:href="#Unbenannter_Verlauf_2"/><linearGradient id="Unbenannter_Verlauf_2-7" y1="127.89" y2="127.89" xlink:href="#Unbenannter_Verlauf_2"/><linearGradient id="Unbenannter_Verlauf_2-8" y1="111.51" x2="401.92" y2="111.51" xlink:href="#Unbenannter_Verlauf_2"/><linearGradient id="Unbenannter_Verlauf_2-9" y1="63.71" x2="401.92" y2="63.71" xlink:href="#Unbenannter_Verlauf_2"/><linearGradient id="Unbenannter_Verlauf_2-10" y1="39.72" x2="401.92" y2="39.72" xlink:href="#Unbenannter_Verlauf_2"/><linearGradient id="Unbenannter_Verlauf_2-11" y1="63.71" x2="401.92" y2="63.71" xlink:href="#Unbenannter_Verlauf_2"/></defs><path d="M348.81,59.58c0,2.18-.75,4.01-2.27,5.47-1.52,1.47-3.42,2.2-5.69,2.2h-8.41c-3.47,0-6.58.72-9.32,2.16v48.13c0,2.47-.8,4.53-2.42,6.19s-3.65,2.49-6.1,2.49-4.51-.82-6.12-2.49c-1.61-1.66-2.42-3.72-2.42-6.19v-60.09c0-2.47.81-4.53,2.42-6.19,1.61-1.65,3.65-2.49,6.12-2.49s4.49.84,6.1,2.49c.89.93,1.54,1.97,1.93,3.15,2.63-1.29,5.33-2.13,8.12-2.52,1.25-.18,2.52-.27,3.81-.27h6.28c2.15,0,3.95.68,5.42,2.04.09.07.18.14.27.23,1.16,1.16,1.88,2.56,2.15,4.19.09.48.13.98.13,1.5Z" fill="url(#Unbenannter_Verlauf_2)"/><path d="M190.09,67.25v38.51c0,1.99.52,3.43,1.56,4.33,1.04.9,2.46,1.35,4.26,1.35.76,0,1.8-.19,3.13-.57,1.14-.47,2.22-.71,3.27-.71,1.32,0,2.53.64,3.62,1.92,1.09,1.28,1.63,2.96,1.63,5.04,0,2.56-1.4,4.71-4.19,6.47-2.8,1.75-5.95,2.63-9.45,2.63-5.88,0-10.82-1.25-14.85-3.77-4.03-2.51-6.04-7.84-6.04-15.99v-63.94c0-2.46.83-4.52,2.49-6.18,1.66-1.66,3.72-2.49,6.18-2.49s4.36.83,5.97,2.49c1.61,1.66,2.42,3.72,2.42,6.18v24.73Z" fill="url(#Unbenannter_Verlauf_2-2)"/><path d="M287.68,51.19c1.61,1.61,2.42,3.7,2.42,6.25v60.11c0,2.47-.81,4.53-2.42,6.18-1.61,1.66-3.65,2.49-6.11,2.49s-4.48-.8-6.04-2.42c-1.56-1.61-2.39-3.65-2.49-6.11-2.37,2.75-5.57,5.09-9.59,7.03-4.03,1.94-8.27,2.91-12.72,2.91-6.54,0-12.46-1.68-17.76-5.05-5.31-3.36-9.5-8.03-12.58-14-3.08-5.97-4.62-12.74-4.62-20.32s1.51-14.37,4.55-20.39c3.03-6.02,7.18-10.7,12.43-14.07,5.26-3.36,11.06-5.04,17.41-5.04,4.55,0,8.81.83,12.79,2.49,3.98,1.66,7.34,3.77,10.09,6.32v-.14c0-2.46.8-4.52,2.42-6.18,1.61-1.66,3.64-2.49,6.11-2.49s4.5.81,6.11,2.42ZM267.93,105.26c3.88-4.5,5.83-10.16,5.83-16.98s-1.94-12.5-5.83-17.05c-3.89-4.55-8.91-6.82-15.06-6.82s-11.04,2.27-14.92,6.82c-3.89,4.55-5.83,10.23-5.83,17.05s1.92,12.48,5.76,16.98c3.84,4.5,8.83,6.75,14.99,6.75s11.18-2.25,15.06-6.75Z" fill="url(#Unbenannter_Verlauf_2-3)"/><path d="M425.99,51.19c1.61,1.61,2.42,3.7,2.42,6.25v60.11c0,2.47-.81,4.53-2.42,6.18-1.61,1.66-3.65,2.49-6.11,2.49s-4.48-.8-6.04-2.42c-1.56-1.61-2.39-3.65-2.49-6.11-2.37,2.75-5.57,5.09-9.59,7.03-4.03,1.94-8.27,2.91-12.72,2.91-6.54,0-12.46-1.68-17.76-5.05-5.31-3.36-9.5-8.03-12.58-14-3.08-5.97-4.62-12.74-4.62-20.32s1.51-14.37,4.55-20.39c3.03-6.02,7.18-10.7,12.43-14.07,5.26-3.36,11.06-5.04,17.41-5.04,4.55,0,8.81.83,12.79,2.49,3.98,1.66,7.34,3.77,10.09,6.32v-.14c0-2.46.8-4.52,2.42-6.18,1.61-1.66,3.64-2.49,6.11-2.49s4.5.81,6.11,2.42ZM406.24,105.26c3.88-4.5,5.83-10.16,5.83-16.98s-1.94-12.5-5.83-17.05c-3.89-4.55-8.91-6.82-15.06-6.82s-11.04,2.27-14.92,6.82c-3.89,4.55-5.83,10.23-5.83,17.05s1.92,12.48,5.76,16.98c3.84,4.5,8.83,6.75,14.99,6.75s11.18-2.25,15.06-6.75Z" fill="url(#Unbenannter_Verlauf_2-4)"/><path d="M72.17,69.82l-9.9,17.16c-.23.39-.23.87,0,1.26l9.9,17.16c.23.39.64.63,1.09.63h19.82c.45,0,.87-.24,1.09-.63l9.9-17.16c.23-.39.23-.87,0-1.26l-9.9-17.16c-.23-.39-.64-.63-1.09-.63h-19.82c-.45,0-.87.24-1.09.63Z" fill="url(#Unbenannter_Verlauf_2-5)"/><path d="M132.61,93.14h-17.69c-.45,0-.87.24-1.09.63l-10.27,17.79.64,1.11s-.01,0-.02,0l9.56,16.56c.23.39.64.63,1.09.63h19.82c.45,0,.87-.23,1.09-.63l8.84-15.33c.38-.66.1-1.52-.61-1.8-4-1.62-8.2-2.73-12.48-3.3-.84-.11-1.33-.96-1-1.74,1.63-3.95,2.78-8.14,3.38-12.51.1-.75-.5-1.43-1.26-1.43Z" fill="url(#Unbenannter_Verlauf_2-6)"/><path d="M94.17,117.72c-.23-.39-.64-.63-1.09-.63h-19.82c-.45,0-.87.24-1.09.63l-8.87,15.36c-.38.66-.1,1.51.6,1.8,5.97,2.46,12.51,3.82,19.36,3.82s13.29-1.33,19.22-3.75c.7-.29.98-1.14.6-1.8l-8.9-15.42Z" fill="url(#Unbenannter_Verlauf_2-7)"/><path d="M51.58,93.14h-17.69c-.76,0-1.36.67-1.26,1.43.59,4.36,1.74,8.54,3.37,12.47.32.78-.17,1.63-1.01,1.74-4.27.55-8.51,1.66-12.63,3.34-.7.29-.98,1.15-.61,1.8l8.84,15.32c.23.39.64.63,1.09.63h19.77c.48,0,.93-.25,1.17-.66l9.95-17.01c.23-.39.23-.88,0-1.27l-9.91-17.16c-.23-.39-.64-.63-1.09-.63Z" fill="url(#Unbenannter_Verlauf_2-8)"/><path d="M33.89,82.08h17.69c.45,0,.87-.24,1.09-.63l9.91-17.16c.23-.39.23-.87,0-1.26l-9.88-17c-.24-.42-.69-.67-1.17-.67h-19.77c-.45,0-.87.23-1.09.63l-8.84,15.33c-.38.66-.1,1.52.61,1.8,4.03,1.63,8.25,2.74,12.56,3.31.84.11,1.33.96,1.01,1.74-1.63,3.94-2.78,8.14-3.38,12.5-.1.75.5,1.43,1.26,1.43Z" fill="url(#Unbenannter_Verlauf_2-9)"/><path d="M72.17,57.51c.23.39.64.63,1.09.63h19.82c.45,0,.87-.24,1.09-.63l9.88-17.1c.24-.42.24-.94,0-1.35l-9.88-17.11c-.23-.39-.64-.63-1.09-.63h-19.82c-.45,0-.87.24-1.09.63l-9.88,17.11c-.24.42-.24.94,0,1.35l9.88,17.1Z" fill="url(#Unbenannter_Verlauf_2-10)"/><path d="M114.92,82.08h17.69c.76,0,1.36-.67,1.26-1.43-.59-4.36-1.74-8.54-3.37-12.48-.32-.78.17-1.63,1.01-1.74,4.24-.56,8.46-1.66,12.56-3.33.7-.29.98-1.15.61-1.8l-8.84-15.32c-.23-.39-.64-.63-1.09-.63h-19.77c-.48,0-.93.25-1.17.67l-9.87,17.01c-.23.39-.23.87,0,1.26l9.9,17.16c.23.39.64.63,1.09.63Z" fill="url(#Unbenannter_Verlauf_2-11)"/></svg>