<?xml version="1.0" encoding="UTF-8"?>
<svg id="Ebene_1" xmlns="http://www.w3.org/2000/svg" xmlns:xlink="http://www.w3.org/1999/xlink" version="1.1" viewBox="0 0 380.2 131.9">
  <!-- Generator: Adobe Illustrator 30.5.0, SVG Export Plug-In . SVG Version: 2.1.4 Build 167)  -->
  <defs>
    <style>
      .st0 {
        fill: url(#Unbenannter_Verlauf_134);
      }

      .st1 {
        fill: url(#Unbenannter_Verlauf_136);
      }

      .st2 {
        fill: url(#Unbenannter_Verlauf_131);
      }

      .st3 {
        fill: url(#Unbenannter_Verlauf_132);
      }

      .st4 {
        fill: url(#Unbenannter_Verlauf_138);
      }

      .st5 {
        fill: url(#Unbenannter_Verlauf_133);
      }

      .st6 {
        fill: url(#Unbenannter_Verlauf_135);
      }

      .st7 {
        fill: url(#Unbenannter_Verlauf_137);
      }

      .st8 {
        fill: url(#Unbenannter_Verlauf_139);
      }

      .st9 {
        fill: url(#Unbenannter_Verlauf_13);
      }
    </style>
    <linearGradient id="Unbenannter_Verlauf_13" data-name="Unbenannter Verlauf 13" x1="15" y1="73.9" x2="340.4" y2="73.9" gradientUnits="userSpaceOnUse">
      <stop offset="0" stop-color="#585fa8"/>
      <stop offset="1" stop-color="#7b3583"/>
    </linearGradient>
    <linearGradient id="Unbenannter_Verlauf_131" data-name="Unbenannter Verlauf 13" y1="66.2" x2="340.4" y2="66.2" xlink:href="#Unbenannter_Verlauf_13"/>
    <linearGradient id="Unbenannter_Verlauf_132" data-name="Unbenannter Verlauf 13" y1="66.2" x2="340.4" y2="66.2" xlink:href="#Unbenannter_Verlauf_13"/>
    <linearGradient id="Unbenannter_Verlauf_133" data-name="Unbenannter Verlauf 13" y1="74.7" x2="340.4" y2="74.7" xlink:href="#Unbenannter_Verlauf_13"/>
    <linearGradient id="Unbenannter_Verlauf_134" data-name="Unbenannter Verlauf 13" y1="103.1" x2="340.4" y2="103.1" xlink:href="#Unbenannter_Verlauf_13"/>
    <linearGradient id="Unbenannter_Verlauf_135" data-name="Unbenannter Verlauf 13" y1="58" x2="340.4" y2="58" xlink:href="#Unbenannter_Verlauf_13"/>
    <linearGradient id="Unbenannter_Verlauf_136" data-name="Unbenannter Verlauf 13" x1="15" y1="58" x2="340.4" y2="58" xlink:href="#Unbenannter_Verlauf_13"/>
    <linearGradient id="Unbenannter_Verlauf_137" data-name="Unbenannter Verlauf 13" y1="30.4" x2="340.4" y2="30.4" xlink:href="#Unbenannter_Verlauf_13"/>
    <linearGradient id="Unbenannter_Verlauf_138" data-name="Unbenannter Verlauf 13" x1="15" y1="80.6" x2="340.4" y2="80.6" xlink:href="#Unbenannter_Verlauf_13"/>
    <linearGradient id="Unbenannter_Verlauf_139" data-name="Unbenannter Verlauf 13" x1="15" y1="125" x2="340.4" y2="125" xlink:href="#Unbenannter_Verlauf_13"/>
  </defs>
  <g>
    <path class="st9" d="M188.4,39c0,0-.2-.2-.3-.2-1.5-1.4-3.4-2.1-5.6-2.1h-6.5c-1.3,0-2.7,0-4,.3-2.9.4-5.7,1.3-8.4,2.6-.4-1.2-1.1-2.3-2-3.3-1.7-1.7-3.8-2.6-6.3-2.6s-4.7.9-6.4,2.6c-1.7,1.7-2.5,3.9-2.5,6.4v62.5c0,2.6.8,4.7,2.5,6.4,1.7,1.7,3.8,2.6,6.4,2.6s4.7-.9,6.3-2.6c1.7-1.7,2.5-3.9,2.5-6.4v-50.1c2.8-1.5,6.1-2.3,9.7-2.3h8.7c2.4,0,4.3-.8,5.9-2.3,1.6-1.5,2.4-3.4,2.4-5.7s0-1.1-.1-1.6c-.3-1.7-1-3.1-2.2-4.4Z"/>
    <path class="st2" d="M377.9,48.3c-1.6-1.6-3.5-2.4-5.9-2.4h-10.5v-6.5c0-2.1.5-3.6,1.6-4.5,1.1-.9,2.6-1.4,4.4-1.4s1.9.2,3.3.6c1.2.5,2.3.7,3.4.7s2.6-.7,3.8-2c1.1-1.3,1.7-3.1,1.7-5.2s-1.5-4.9-4.4-6.7c-2.9-1.8-6.2-2.7-9.8-2.7-6.1,0-11.3,1.3-15.4,3.9-4.2,2.6-6.3,8.2-6.3,16.6v7.3h-6.8c-2.4,0-4.3.8-5.9,2.3-1.6,1.5-2.4,3.4-2.4,5.7s.8,4.3,2.4,5.9c1.6,1.6,3.5,2.4,5.9,2.4h6.8v43c0,2.6.9,4.7,2.6,6.4,1.7,1.7,3.9,2.6,6.4,2.6s4.5-.9,6.2-2.6c1.7-1.7,2.5-3.9,2.5-6.4v-43h10.5c2.4,0,4.3-.8,5.9-2.3,1.6-1.5,2.4-3.4,2.4-5.7s-.8-4.3-2.4-5.9Z"/>
    <path class="st3" d="M323.2,97.5c-1.1,0-2.2.2-3.4.7-1.4.4-2.5.6-3.3.6-1.9,0-3.4-.5-4.4-1.4-1.1-.9-1.6-2.4-1.6-4.5V27.1c0-2.6-.8-4.7-2.5-6.4-1.7-1.7-3.7-2.6-6.2-2.6s-4.7.9-6.4,2.6c-1.7,1.7-2.6,3.9-2.6,6.4v66.5c0,8.5,2.1,14,6.3,16.6,4.2,2.6,9.3,3.9,15.4,3.9s6.9-.9,9.8-2.7c2.9-1.8,4.4-4.1,4.4-6.7s-.6-3.9-1.7-5.2c-1.1-1.3-2.4-2-3.8-2Z"/>
    <path class="st5" d="M265.8,33.7c-2.6,0-4.7.9-6.4,2.6-1.7,1.7-2.5,3.9-2.5,6.4h0c-2.9-2.5-6.4-4.7-10.5-6.4-4.1-1.7-8.6-2.6-13.3-2.6s-12.6,1.8-18.1,5.2c-5.5,3.5-9.8,8.4-12.9,14.6-3.2,6.3-4.7,13.3-4.7,21.2s1.6,14.9,4.8,21.1c3.2,6.2,7.6,11.1,13.1,14.6,5.5,3.5,11.7,5.2,18.5,5.2s9-1,13.2-3c4.2-2,7.5-4.5,10-7.3,0,2.6,1,4.7,2.6,6.4,1.6,1.7,3.7,2.5,6.3,2.5s4.7-.9,6.4-2.6c1.7-1.7,2.5-3.9,2.5-6.4v-62.5c0-2.7-.8-4.8-2.5-6.5-1.7-1.7-3.8-2.5-6.4-2.5ZM251.6,92.4c-4,4.7-9.3,7-15.7,7s-11.6-2.3-15.6-7c-4-4.7-6-10.6-6-17.7s2-13,6.1-17.7c4-4.7,9.2-7.1,15.5-7.1s11.6,2.4,15.7,7.1c4,4.7,6.1,10.6,6.1,17.7s-2,13-6.1,17.7Z"/>
  </g>
  <g>
    <path class="st0" d="M81.6,98.6H31.8c-.5,0-.9.4-.9.9v7.3c0,.5.4.8.8.8h49.8c.5,0,.9-.4.9-.9v-7.3c0-.5-.4-.8-.8-.8Z"/>
    <path class="st6" d="M42.9,66.6l-23.1-13.4c-.3-.1-.4-.4-.4-.7v-27.8c0-.6-.7-1-1.3-.7l-14.3,8.3c-2.4,1.4-3.8,3.9-3.8,6.6v52.6c0,.6.7,1,1.2.7l41.7-24.1c.6-.3.6-1.1,0-1.4Z"/>
    <path class="st1" d="M109.5,32.2l-14.4-8.3c-.6-.3-1.3,0-1.3.7v27.8c0,.3-.2.6-.4.7l-23,13.3c-.6.3-.6,1.1,0,1.4l41.6,24.1c.6.3,1.3,0,1.3-.7v-52.4c0-2.7-1.5-5.3-3.8-6.6Z"/>
    <path class="st7" d="M20.2,5.6h12.4c.3,0,.5.1.7.4l4,6.9-5.4,3.1c-.5.3-.9.9-.9,1.5v27.7c0,.6.3,1.2.9,1.5l24.2,14c.4.2.9.2,1.3,0l14.5-8.3,9.7-5.6c.5-.3.9-.9.9-1.5v-27.7c0-.6-.3-1.2-.9-1.5l-5.4-3.1,4.1-6.9c.1-.2.4-.4.7-.4h12.3c.4,0,.8-.3.8-.8V.8c0-.4-.3-.8-.8-.8h-16.8c-.3,0-.5.1-.7.4l-5.3,9.2-10-5.8c-2.3-1.4-5.2-1.4-7.6,0l-10,5.8L37.6.4c-.1-.2-.4-.4-.7-.4h-16.8c-.4,0-.8.3-.8.8v4c0,.4.3.8.8.8Z"/>
    <path class="st4" d="M32.8,87.1c-.4.2-.2.9.2.9h47.6c.5,0,.7-.6.2-.9l-23.2-13.7c-.4-.2-.9-.2-1.4,0l-23.4,13.7Z"/>
    <path class="st8" d="M80.6,118.2h-47.6c-.5,0-.7.6-.2.9l19.7,11.6c2.6,1.5,5.8,1.5,8.4,0l19.9-11.6c.4-.2.2-.9-.2-.9Z"/>
  </g>
</svg>