<?xml version="1.0" encoding="UTF-8" standalone="no"?>
<svg
   version="1.1"
   width="239.481mm"
   height="63.2442mm"
   viewBox="0 0 905 239"
   id="svg1"
   sodipodi:docname="sophia.svg"
   inkscape:version="1.4.2 (f4327f4, 2025-05-13)"
   xmlns:inkscape="http://www.inkscape.org/namespaces/inkscape"
   xmlns:sodipodi="http://sodipodi.sourceforge.net/DTD/sodipodi-0.dtd"
   xmlns:xlink="http://www.w3.org/1999/xlink"
   xmlns="http://www.w3.org/2000/svg"
   xmlns:svg="http://www.w3.org/2000/svg">
  <defs
     id="defs1">
    <linearGradient
       id="linearGradient1"
       inkscape:collect="always">
      <stop
         style="stop-color:#fdd841;stop-opacity:1;"
         offset="0"
         id="stop1" />
      <stop
         style="stop-color:#fab035;stop-opacity:1;"
         offset="1"
         id="stop2" />
    </linearGradient>
    <linearGradient
       inkscape:collect="always"
       xlink:href="#linearGradient1"
       id="linearGradient2"
       x1="33.776058"
       y1="123.18327"
       x2="852.34875"
       y2="127.15692"
       gradientUnits="userSpaceOnUse" />
  </defs>
  <sodipodi:namedview
     id="namedview1"
     pagecolor="#ffffff"
     bordercolor="#000000"
     borderopacity="0.25"
     inkscape:showpageshadow="2"
     inkscape:pageopacity="0.0"
     inkscape:pagecheckerboard="0"
     inkscape:deskcolor="#d1d1d1"
     inkscape:document-units="mm"
     inkscape:zoom="1.0064908"
     inkscape:cx="350.22676"
     inkscape:cy="20.367797"
     inkscape:window-width="1920"
     inkscape:window-height="1129"
     inkscape:window-x="1912"
     inkscape:window-y="-8"
     inkscape:window-maximized="1"
     inkscape:current-layer="svg1" />
  <path
     id="path1"
     fill="none"
     stroke="black"
     stroke-width="1"
     d="M 588.00,32.65            C 602.10,29.77 603.95,41.02 604.00,52.00              604.00,52.00 604.00,73.00 604.00,73.00              603.95,76.80 601.20,88.60 608.98,86.35              611.16,85.71 613.87,82.75 616.09,81.35              622.10,77.54 629.84,74.10 637.00,74.00              637.00,74.00 642.00,74.00 642.00,74.00              658.28,74.03 669.18,84.71 673.37,100.00              675.86,109.08 675.00,141.65 675.00,153.00              675.00,153.00 675.00,167.00 675.00,167.00              675.00,175.89 675.32,189.93 662.00,188.14              652.76,186.91 651.01,177.67 651.00,170.00              651.00,170.00 651.00,119.00 651.00,119.00              650.93,113.49 650.25,107.58 646.65,103.23              638.39,93.06 619.51,93.63 611.13,103.23              602.62,113.11 604.00,121.08 604.00,133.00              604.00,133.00 604.00,172.00 604.00,172.00              603.89,181.38 601.09,188.98 590.00,187.89              581.04,187.00 580.01,178.13 580.00,171.00              580.00,171.00 580.00,67.00 580.00,67.00              580.00,67.00 580.00,46.00 580.00,46.00              580.01,43.34 579.89,40.46 581.17,38.04              582.81,34.96 584.98,33.93 588.00,32.65 Z            M 140.00,193.00            C 99.24,210.97 52.79,192.28 37.26,150.00              34.21,141.71 33.11,139.22 33.00,130.00              33.00,130.00 33.00,123.00 33.00,123.00              33.03,105.03 39.17,93.06 49.85,79.00              56.20,70.63 66.66,62.90 76.00,58.14              89.85,51.09 97.81,50.80 113.00,51.00              118.83,51.08 118.10,51.68 123.00,52.63              123.00,52.63 130.00,53.72 130.00,53.72              137.63,55.88 144.67,60.09 151.00,64.72              170.19,78.76 182.03,100.06 182.96,124.00              183.59,140.20 175.30,161.74 164.58,173.71              162.88,175.60 155.80,183.79 154.00,184.27              150.44,185.21 149.32,180.20 146.59,176.13              146.59,176.13 143.07,171.57 143.07,171.57              143.07,171.57 138.49,163.00 138.49,163.00              136.97,160.62 134.03,156.78 133.72,154.00              133.09,148.37 138.15,142.43 144.00,143.52              149.43,144.53 155.13,153.32 165.91,148.97              171.22,146.83 173.35,136.91 170.69,132.14              169.40,129.83 164.44,127.05 162.00,126.16              153.15,122.96 143.64,141.78 135.30,129.00              135.30,129.00 132.76,124.58 132.76,124.58              127.89,113.97 143.77,113.58 146.95,111.40              151.56,108.23 153.69,101.36 152.62,96.00              149.83,82.08 131.68,82.83 125.70,90.26              120.42,96.82 124.98,107.08 125.00,115.00              120.61,115.58 112.24,117.34 108.61,114.26              103.57,109.99 105.78,104.46 105.96,99.00              106.21,91.11 104.32,87.05 97.00,83.53              94.91,82.53 93.33,82.08 91.00,82.14              82.68,82.32 74.34,91.53 76.32,100.00              76.96,102.74 81.09,107.79 83.26,109.61              88.13,113.69 92.16,111.26 95.89,116.14              98.88,120.05 99.08,122.87 96.53,127.00              94.88,129.67 92.53,133.32 88.96,133.10              84.10,132.79 81.67,127.16 76.91,124.72              65.99,119.13 55.52,128.56 56.04,140.00              56.60,152.35 69.88,156.29 79.00,150.30              83.04,147.65 88.31,140.16 93.37,145.32              94.35,146.32 95.69,148.72 96.35,150.00              99.16,155.40 98.09,160.55 92.68,163.99              90.39,165.45 81.99,166.81 80.33,175.00              78.56,183.71 90.84,192.05 99.91,186.15              109.15,180.12 101.65,169.34 107.85,162.31              111.11,158.62 118.17,159.96 121.48,162.97              122.97,164.32 125.50,169.77 126.89,172.00              131.32,179.08 136.52,185.40 140.00,193.00 Z            M 246.00,74.63            C 259.40,71.97 283.89,76.20 293.37,86.52              303.57,97.62 293.99,107.45 287.00,105.89              283.46,105.10 278.99,101.03 276.00,98.93              270.88,95.36 269.62,95.77 264.00,94.50              256.42,92.79 251.84,91.63 245.04,96.79              242.88,98.43 241.09,100.23 240.60,103.00              238.61,114.18 250.92,118.02 259.00,120.44              259.00,120.44 267.00,123.22 267.00,123.22              267.00,123.22 273.72,124.50 273.72,124.50              276.64,125.50 287.54,131.40 290.00,133.38              296.88,138.90 298.58,142.63 300.08,151.00              300.08,151.00 301.40,159.00 301.40,159.00              301.39,165.04 296.58,172.86 292.38,177.00              287.76,181.55 282.95,184.24 277.00,186.69              267.17,190.74 263.31,190.13 253.00,190.00              246.98,189.92 247.37,189.32 242.00,188.04              230.70,185.34 226.75,183.55 218.05,175.28              212.10,169.62 209.17,160.51 218.05,155.84              221.88,153.82 224.43,153.95 228.00,156.39              228.00,156.39 235.28,162.55 235.28,162.55              243.36,168.43 255.04,171.94 265.00,170.58              271.59,169.67 278.71,166.92 278.90,159.00              279.09,151.25 272.86,149.12 267.28,146.14              265.10,144.98 264.57,144.20 261.96,143.41              250.25,139.83 235.74,137.01 226.21,129.00              221.96,125.43 219.36,120.22 217.84,115.00              217.20,112.84 215.90,110.08 215.70,108.00              214.88,99.69 221.74,88.79 228.00,83.89              235.19,78.27 237.61,77.53 246.00,74.63 Z            M 363.00,74.43            C 367.89,73.82 384.49,74.13 388.72,75.51              395.79,77.82 408.15,85.74 413.12,91.21              426.77,106.25 430.75,123.36 427.59,143.00              426.23,151.47 423.43,159.74 418.35,166.83              416.18,169.87 411.85,173.94 409.00,176.42              406.16,178.89 403.36,181.75 400.00,183.45              386.87,190.09 383.30,190.16 369.00,190.00              361.57,189.91 354.69,189.20 348.00,185.96              348.00,185.96 341.17,182.79 341.17,182.79              338.29,181.05 325.71,169.23 323.81,166.58              322.43,164.66 318.77,155.60 317.82,153.00              316.24,148.65 315.20,146.75 314.64,142.00              313.43,135.76 314.22,131.09 314.64,125.00              314.64,125.00 315.52,118.00 315.52,118.00              316.25,114.59 317.50,112.13 318.84,109.00              327.22,89.30 341.86,77.89 363.00,74.43 Z            M 499.00,74.60            C 501.77,74.09 502.17,74.04 505.00,74.00              519.97,73.81 533.73,78.44 544.06,89.82              565.81,113.77 563.82,162.27 536.00,181.05              523.80,189.28 518.18,190.18 504.00,190.00              501.13,189.96 499.80,189.94 497.00,189.10              497.00,189.10 484.51,185.04 484.51,185.04              482.33,183.69 480.43,180.27 477.09,180.54              472.43,180.91 473.01,187.74 473.00,191.00              473.00,191.00 473.00,215.00 473.00,215.00              472.98,218.64 472.98,222.70 470.91,226.12              466.79,232.19 455.48,231.96 450.82,226.12              448.70,223.81 449.00,219.17 449.00,216.00              449.00,216.00 449.00,90.00 449.00,90.00              449.00,87.34 448.78,83.54 450.17,81.22              452.90,76.69 461.39,75.08 465.91,77.45              470.43,79.82 472.80,85.43 477.01,85.18              479.87,85.01 484.47,80.87 487.00,79.24              490.79,76.80 494.72,75.85 499.00,74.60 Z            M 787.00,74.51            C 795.69,73.15 805.84,73.86 814.00,77.25              814.00,77.25 826.97,84.09 826.97,84.09              831.42,84.59 831.08,78.53 837.02,75.45              843.47,72.10 853.02,76.22 854.56,82.04              855.17,84.38 854.04,90.80 854.00,94.00              854.00,94.00 854.00,174.00 854.00,174.00              854.00,176.66 854.22,180.46 852.83,182.78              849.83,187.76 841.72,188.69 837.02,186.03              831.14,182.71 830.45,177.85 826.02,178.88              823.29,179.52 820.22,183.65 815.00,186.17              807.82,189.64 800.78,190.09 793.00,190.00              788.95,189.95 779.86,188.18 776.28,186.53              776.28,186.53 770.96,183.01 770.96,183.01              751.00,170.17 743.87,151.01 744.74,128.00              744.96,122.27 747.01,111.23 749.04,106.00              753.30,94.98 758.51,89.42 768.00,82.88              770.60,81.09 774.14,78.59 777.00,77.38              777.00,77.38 787.00,74.51 787.00,74.51 Z            M 707.04,77.02            C 720.31,72.51 724.98,82.67 725.00,94.00              725.00,94.00 725.00,170.00 725.00,170.00              724.99,174.98 724.73,179.64 721.32,183.66              716.33,189.53 706.03,188.94 702.57,182.79              700.85,179.73 701.01,175.41 701.00,172.00              701.00,172.00 701.00,96.00 701.00,96.00              700.92,87.99 699.66,82.49 707.04,77.02 Z            M 506.00,95.30            C 494.94,96.82 484.93,97.77 478.21,108.17              468.37,123.40 469.75,146.08 481.84,159.56              483.36,161.27 485.17,163.56 487.13,164.69              488.99,165.77 493.66,166.68 496.00,167.27              498.92,168.01 503.03,169.06 506.00,168.70              517.48,167.33 529.71,159.28 533.40,148.00              535.50,141.60 535.08,132.80 535.00,126.00              534.82,111.01 521.88,94.65 506.00,95.30 Z            M 362.17,96.54            C 362.17,96.54 353.01,100.73 353.01,100.73              349.94,102.76 348.59,105.12 346.45,107.91              340.30,115.93 338.05,121.77 338.00,132.00              337.94,145.83 343.66,159.52 357.01,165.19              362.24,167.41 362.05,167.92 368.00,168.00              376.86,168.12 382.19,168.34 390.00,163.19              396.19,159.10 401.50,151.17 403.39,144.00              404.25,140.73 404.02,134.58 404.00,131.00              403.94,119.42 399.78,107.67 389.99,100.65              382.91,95.57 370.49,94.87 362.17,96.54 Z            M 792.00,96.32            C 780.75,98.85 775.96,103.95 771.22,114.00              768.72,119.31 768.08,120.00 768.00,126.00              768.00,126.00 768.00,136.00 768.00,136.00              768.05,140.14 768.61,145.17 770.22,149.00              774.89,160.17 789.58,170.66 802.00,168.54              805.48,167.94 814.13,165.98 816.83,164.12              821.76,160.73 825.12,155.34 827.51,150.00              827.51,150.00 830.85,141.83 830.85,141.83              834.77,126.62 828.43,107.17 814.71,98.89              809.25,95.60 798.25,95.64 792.00,96.32 Z"
     style="fill-opacity:1;fill:url(#linearGradient2)" />
</svg>
