<?xml version="1.0" encoding="UTF-8" standalone="no"?>
<svg
   version="1.1"
   width="220mm"
   height="55mm"
   viewBox="0 0 831.38118 207.84514"
   id="svg1"
   sodipodi:docname="sophia.svg"
   inkscape:version="1.4.2 (f4327f4, 2025-05-13)"
   xmlns:inkscape="http://www.inkscape.org/namespaces/inkscape"
   xmlns:sodipodi="http://sodipodi.sourceforge.net/DTD/sodipodi-0.dtd"
   xmlns:xlink="http://www.w3.org/1999/xlink"
   xmlns="http://www.w3.org/2000/svg"
   xmlns:svg="http://www.w3.org/2000/svg">
  <defs
     id="defs1">
    <linearGradient
       id="linearGradient1"
       inkscape:collect="always">
      <stop
         style="stop-color:#fdd841;stop-opacity:1;"
         offset="0"
         id="stop1" />
      <stop
         style="stop-color:#fab035;stop-opacity:1;"
         offset="1"
         id="stop2" />
    </linearGradient>
    <linearGradient
       inkscape:collect="always"
       xlink:href="#linearGradient1"
       id="linearGradient2"
       x1="33.776058"
       y1="123.18327"
       x2="852.34875"
       y2="127.15692"
       gradientUnits="userSpaceOnUse"
       gradientTransform="translate(-28.526346,-27.719575)" />
  </defs>
  <sodipodi:namedview
     id="namedview1"
     pagecolor="#ffffff"
     bordercolor="#000000"
     borderopacity="0.25"
     inkscape:showpageshadow="2"
     inkscape:pageopacity="0.0"
     inkscape:pagecheckerboard="0"
     inkscape:deskcolor="#d1d1d1"
     inkscape:document-units="mm"
     inkscape:zoom="1.0064908"
     inkscape:cx="422.2592"
     inkscape:cy="-10.432286"
     inkscape:window-width="1920"
     inkscape:window-height="1129"
     inkscape:window-x="1912"
     inkscape:window-y="-8"
     inkscape:window-maximized="1"
     inkscape:current-layer="svg1" />
  <path
     id="path1"
     fill="none"
     stroke="#000000"
     stroke-width="1"
     d="m 559.47365,4.9304253 c 14.1,-2.88 15.95,8.3699997 16,19.3499997 0,0 0,21 0,21 -0.05,3.8 -2.8,15.6 4.98,13.35 2.18,-0.64 4.89,-3.6 7.11,-5 6.01,-3.81 13.75,-7.25 20.91,-7.35 0,0 5,0 5,0 16.28,0.03 27.18,10.71 31.37,26 2.49,9.08 1.63,41.649995 1.63,52.999995 0,0 0,14 0,14 0,8.89 0.32,22.93 -13,21.14 -9.24,-1.23 -10.99,-10.47 -11,-18.14 0,0 0,-50.999995 0,-50.999995 -0.07,-5.51 -0.75,-11.42 -4.35,-15.77 -8.26,-10.17 -27.14,-9.6 -35.52,0 -8.51,9.88 -7.13,17.85 -7.13,29.769995 0,0 0,39 0,39 -0.11,9.38 -2.91,16.98 -14,15.89 -8.96,-0.89 -9.99,-9.76 -10,-16.89 0,0 0,-103.999995 0,-103.999995 0,0 0,-21 0,-21 0.01,-2.66 -0.11,-5.54 1.17,-7.96 1.64,-3.0799997 3.81,-4.1099997 6.83,-5.3899997 z m -448,160.3499947 c -40.759996,17.97 -87.209996,-0.72 -102.7399962,-43 -3.05,-8.29 -4.15,-10.78 -4.26,-20 0,0 0,-6.999995 0,-6.999995 0.03,-17.97 6.1700002,-29.94 16.8500002,-44 6.35,-8.37 16.81,-16.1 26.15,-20.86 13.85,-7.05 21.81,-7.34 37,-7.14 5.83,0.08 5.1,0.68 10,1.63 0,0 6.999996,1.09 6.999996,1.09 7.63,2.16 14.67,6.37 21,11 19.19,14.04 31.03,35.34 31.96,59.28 0.63,16.199995 -7.66,37.739995 -18.38,49.709995 -1.7,1.89 -8.78,10.08 -10.58,10.56 -3.56,0.94 -4.68,-4.07 -7.41,-8.14 0,0 -3.52,-4.56 -3.52,-4.56 0,0 -4.58,-8.57 -4.58,-8.57 -1.52,-2.38 -4.46,-6.22 -4.77,-9 -0.63,-5.63 4.43,-11.57 10.28,-10.48 5.43,1.01 11.13,9.8 21.91,5.45 5.31,-2.14 7.44,-12.06 4.78,-16.83 -1.29,-2.31 -6.25,-5.089995 -8.69,-5.979995 -8.85,-3.2 -18.36,15.619995 -26.7,2.839995 0,0 -2.54,-4.419995 -2.54,-4.419995 -4.869996,-10.61 11.01,-11 14.19,-13.18 4.61,-3.17 6.74,-10.04 5.67,-15.4 -2.79,-13.92 -20.94,-13.17 -26.919996,-5.74 -5.28,6.56 -0.72,16.82 -0.7,24.74 -4.39,0.58 -12.76,2.34 -16.39,-0.74 -5.04,-4.27 -2.83,-9.8 -2.65,-15.26 0.25,-7.89 -1.64,-11.95 -8.96,-15.47 -2.09,-1 -3.67,-1.45 -6,-1.39 -8.32,0.18 -16.66,9.39 -14.68,17.86 0.64,2.74 4.77,7.79 6.94,9.61 4.87,4.08 8.9,1.65 12.63,6.53 2.99,3.91 3.19,6.73 0.64,10.86 -1.65,2.669995 -4,6.319995 -7.57,6.099995 -4.86,-0.31 -7.29,-5.939995 -12.05,-8.379995 -10.92,-5.59 -21.39,3.839995 -20.87,15.279995 0.56,12.35 13.84,16.29 22.96,10.3 4.04,-2.65 9.31,-10.14 14.37,-4.98 0.98,1 2.32,3.4 2.98,4.68 2.81,5.4 1.74,10.55 -3.67,13.99 -2.29,1.46 -10.69,2.82 -12.35,11.01 -1.77,8.71 10.51,17.05 19.58,11.15 9.24,-6.03 1.74,-16.81 7.94,-23.84 3.26,-3.69 10.32,-2.35 13.63,0.66 1.49,1.35 4.02,6.8 5.41,9.03 4.429996,7.08 9.629996,13.4 13.109996,21 z m 106,-118.369995 c 13.4,-2.66 37.89,1.57 47.37,11.89 10.2,11.1 0.62,20.93 -6.37,19.37 -3.54,-0.79 -8.01,-4.86 -11,-6.96 -5.12,-3.57 -6.38,-3.16 -12,-4.43 -7.58,-1.71 -12.16,-2.87 -18.96,2.29 -2.16,1.64 -3.95,3.44 -4.44,6.21 -1.99,11.18 10.32,15.02 18.4,17.44 0,0 8,2.78 8,2.78 0,0 6.72,1.28 6.72,1.28 2.92,1 13.82,6.899995 16.28,8.879995 6.88,5.52 8.58,9.25 10.08,17.62 0,0 1.32,8 1.32,8 -0.01,6.04 -4.82,13.86 -9.02,18 -4.62,4.55 -9.43,7.24 -15.38,9.69 -9.83,4.05 -13.69,3.44 -24,3.31 -6.02,-0.08 -5.63,-0.68 -11,-1.96 -11.3,-2.7 -15.25,-4.49 -23.95,-12.76 -5.95,-5.66 -8.88,-14.77 0,-19.44 3.83,-2.02 6.38,-1.89 9.95,0.55 0,0 7.28,6.16 7.28,6.16 8.08,5.88 19.76,9.39 29.72,8.03 6.59,-0.91 13.71,-3.66 13.9,-11.58 0.19,-7.75 -6.04,-9.88 -11.62,-12.86 -2.18,-1.16 -2.71,-1.94 -5.32,-2.73 -11.71,-3.58 -26.22,-6.4 -35.75,-14.41 -4.25,-3.569995 -6.85,-8.779995 -8.37,-13.999995 -0.64,-2.16 -1.94,-4.92 -2.14,-7 -0.82,-8.31 6.04,-19.21 12.3,-24.11 7.19,-5.62 9.61,-6.36 18,-9.26 z m 117,-0.2 c 4.89,-0.61 21.49,-0.3 25.72,1.08 7.07,2.31 19.43,10.23 24.4,15.7 13.65,15.04 17.63,32.15 14.47,51.789995 -1.36,8.47 -4.16,16.74 -9.24,23.83 -2.17,3.04 -6.5,7.11 -9.35,9.59 -2.84,2.47 -5.64,5.33 -9,7.03 -13.13,6.64 -16.7,6.71 -31,6.55 -7.43,-0.09 -14.31,-0.8 -21,-4.04 0,0 -6.83,-3.17 -6.83,-3.17 -2.88,-1.74 -15.46,-13.56 -17.36,-16.21 -1.38,-1.92 -5.04,-10.98 -5.99,-13.58 -1.58,-4.35 -2.62,-6.25 -3.18,-11 -1.21,-6.24 -0.42,-10.91 0,-16.999995 0,0 0.88,-7 0.88,-7 0.73,-3.41 1.98,-5.87 3.32,-9 8.38,-19.7 23.02,-31.11 44.16,-34.57 z m 136,0.17 c 2.77,-0.51 3.17,-0.56 6,-0.6 14.97,-0.19 28.73,4.44 39.06,15.82 21.75,23.95 19.76,72.449995 -8.06,91.229995 -12.2,8.23 -17.82,9.13 -32,8.95 -2.87,-0.04 -4.2,-0.06 -7,-0.9 0,0 -12.49,-4.06 -12.49,-4.06 -2.18,-1.35 -4.08,-4.77 -7.42,-4.5 -4.66,0.37 -4.08,7.2 -4.09,10.46 0,0 0,24 0,24 -0.02,3.64 -0.02,7.7 -2.09,11.12 -4.12,6.07 -15.43,5.84 -20.09,0 -2.12,-2.31 -1.82,-6.95 -1.82,-10.12 0,0 0,-125.999995 0,-125.999995 0,-2.66 -0.22,-6.46 1.17,-8.78 2.73,-4.53 11.22,-6.14 15.74,-3.77 4.52,2.37 6.89,7.98 11.1,7.73 2.86,-0.17 7.46,-4.31 9.99,-5.94 3.79,-2.44 7.72,-3.39 12,-4.64 z m 288,-0.09 c 8.69,-1.36 18.84,-0.65 27,2.74 0,0 12.97,6.84 12.97,6.84 4.45,0.5 4.11,-5.56 10.05,-8.64 6.45,-3.35 16,0.77 17.54,6.59 0.61,2.34 -0.52,8.76 -0.56,11.96 0,0 0,79.999995 0,79.999995 0,2.66 0.22,6.46 -1.17,8.78 -3,4.98 -11.11,5.91 -15.81,3.25 -5.88,-3.32 -6.57,-8.18 -11,-7.15 -2.73,0.64 -5.8,4.77 -11.02,7.29 -7.18,3.47 -14.22,3.92 -22,3.83 -4.05,-0.05 -13.14,-1.82 -16.72,-3.47 0,0 -5.32,-3.52 -5.32,-3.52 -19.96,-12.84 -27.09,-32 -26.22,-55.01 0.22,-5.729995 2.27,-16.769995 4.3,-21.999995 4.26,-11.02 9.47,-16.58 18.96,-23.12 2.6,-1.79 6.14,-4.29 9,-5.5 z m -79.96,2.51 c 13.27,-4.51 17.94,5.65 17.96,16.98 0,0 0,75.999995 0,75.999995 -0.01,4.98 -0.27,9.64 -3.68,13.66 -4.99,5.87 -15.29,5.28 -18.75,-0.87 -1.72,-3.06 -1.56,-7.38 -1.57,-10.79 0,0 0,-75.999995 0,-75.999995 -0.08,-8.01 -1.34,-13.51 6.04,-18.98 z m -201.04,18.28 c -11.06,1.52 -21.07,2.47 -27.79,12.87 -9.84,15.23 -8.46,37.909995 3.63,51.389995 1.52,1.71 3.33,4 5.29,5.13 1.86,1.08 6.53,1.99 8.87,2.58 2.92,0.74 7.03,1.79 10,1.43 11.48,-1.37 23.71,-9.42 27.4,-20.7 2.1,-6.4 1.68,-15.2 1.6,-21.999995 -0.18,-14.99 -13.12,-31.35 -29,-30.7 z m -143.83,1.24 c 0,0 -9.16,4.19 -9.16,4.19 -3.07,2.03 -4.42,4.39 -6.56,7.18 -6.15,8.02 -8.4,13.86 -8.45,24.089995 -0.06,13.83 5.66,27.52 19.01,33.19 5.23,2.22 5.04,2.73 10.99,2.81 8.86,0.12 14.19,0.34 22,-4.81 6.19,-4.09 11.5,-12.02 13.39,-19.19 0.86,-3.27 0.63,-9.42 0.61,-13 -0.06,-11.579995 -4.22,-23.329995 -14.01,-30.349995 -7.08,-5.08 -19.5,-5.78 -27.82,-4.11 z m 429.83,-0.22 c -11.25,2.53 -16.04,7.63 -20.78,17.68 -2.5,5.31 -3.14,6 -3.22,12 0,0 0,9.999995 0,9.999995 0.05,4.14 0.61,9.17 2.22,13 4.67,11.17 19.36,21.66 31.78,19.54 3.48,-0.6 12.13,-2.56 14.83,-4.42 4.93,-3.39 8.29,-8.78 10.68,-14.12 0,0 3.34,-8.17 3.34,-8.17 3.92,-15.209995 -2.42,-34.659995 -16.14,-42.939995 -5.46,-3.29 -16.46,-3.25 -22.71,-2.57 z"
     style="fill:url(#linearGradient2);fill-opacity:1" />
</svg>
